<svg width="129" height="146" viewBox="0 0 129 146" fill="none" xmlns="http://www.w3.org/2000/svg">
<g clip-path="url(#clip0_2065_210)">
<path d="M9.55029 31.5578L64.3293 10.9014L118.221 31.5578C118.221 31.5578 127.363 109.258 64.3293 135.331C64.3293 135.331 9.55029 118.89 9.55029 31.5578Z" fill="url(#paint0_linear_2065_210)"/>
<path opacity="0.5" d="M64.3293 10.9014L9.55029 31.5578C9.55029 55.3388 13.6121 73.8632 19.5237 88.2304C36.9359 72.7668 81.145 41.8395 118.684 41.8395C118.682 35.4725 118.221 31.5578 118.221 31.5578L64.3293 10.9014Z" fill="url(#paint1_linear_2065_210)"/>
<path d="M64.342 142.671L64.1101 142.603C63.96 142.562 48.5291 137.786 33.3711 121.141C19.4001 105.819 2.75488 76.9905 2.75488 26.6321V26.1545L64.3147 2.96045L64.5603 3.05595L124.838 26.1545L124.892 26.5639C124.92 26.7821 127.375 48.5573 121.195 73.5933C115.492 96.7465 101.03 127.499 64.574 142.575L64.342 142.671ZM4.11924 27.1096C4.22839 76.6767 20.587 105.055 34.3261 120.159C48.2426 135.467 62.3501 140.57 64.2874 141.225C100.02 126.339 114.223 96.0779 119.844 73.3068C125.506 50.3856 123.855 30.2203 123.555 27.1232L64.3011 4.42031L4.11924 27.1096Z" fill="#28324B"/>
<path d="M64.3568 146L64.1248 145.932C63.9611 145.877 47.848 140.897 31.9942 123.502C17.3956 107.498 0 77.3591 0 24.7222V24.2446L64.3159 0L64.5614 0.0955051L127.568 24.231L127.622 24.6403C127.649 24.8723 130.214 47.6298 123.761 73.7981C117.799 98.0019 102.682 130.146 64.5887 145.904L64.3568 146ZM1.36436 25.1997C1.47351 77.0453 18.5826 106.734 32.9493 122.519C47.5342 138.551 62.3102 143.885 64.2886 144.554C101.672 128.986 116.53 97.347 122.424 73.5253C128.359 49.4989 126.612 28.3787 126.299 25.2133L64.3159 1.45986L1.36436 25.1997Z" fill="#28324B"/>
<path d="M53.2334 53.3155C53.2334 51.6705 54.567 50.3369 56.212 50.3369H89.7212C91.3663 50.3369 92.6998 51.6705 92.6998 53.3155V78.889C92.6998 80.534 91.3663 81.8676 89.7212 81.8676H56.212C54.567 81.8676 53.2334 80.534 53.2334 78.889V53.3155Z" stroke="white" stroke-width="1.4893"/>
<path d="M76.6902 81.8677L77.0626 86.3356M66.2651 86.7079H80.4135M69.9884 81.8677L69.6161 86.3356" stroke="white" stroke-width="1.4893" stroke-linecap="round" stroke-linejoin="round"/>
<path d="M53.1831 76.0112H80.6468M83.4739 76.0112H86.705M89.5321 76.0112H92.3593" stroke="white" stroke-width="1.4893" stroke-linecap="round" stroke-linejoin="round"/>
<path d="M45 46L58 46" stroke="white" stroke-width="1.4893" stroke-linecap="round" stroke-linejoin="round"/>
<path d="M45 51L54 51" stroke="white" stroke-width="1.4893" stroke-linecap="round" stroke-linejoin="round"/>
<path d="M45 56L53 56" stroke="white" stroke-width="1.4893" stroke-linecap="round" stroke-linejoin="round"/>
<path d="M45 80L53 80" stroke="white" stroke-width="1.4893" stroke-linecap="round" stroke-linejoin="round"/>
<path d="M74.5595 69.3403L81.4256 61.2622M79.4057 69.3401L83.4447 64.8974M73.7513 64.8975L77.7902 60.4547" stroke="white" stroke-width="1.4893" stroke-linecap="round" stroke-linejoin="round"/>
<path d="M62.0692 47.1435V42.8931C62.0692 41.1087 60.6226 39.6621 58.8381 39.6621H51.1645H43.4908C41.7063 39.6621 40.2598 41.1087 40.2598 42.8931V83.6848C40.2598 85.4692 41.7063 86.9158 43.4908 86.9158H59.6459C60.9842 86.9158 62.0692 85.8309 62.0692 84.4925" stroke="white" stroke-width="1.4893" stroke-linecap="round" stroke-linejoin="round"/>
<path d="M73.0159 94.5195H49.7816C49.4502 94.5195 49.1267 94.6215 48.8552 94.8116L45.3934 97.2348C44.0994 98.1406 44.7403 100.174 46.3198 100.174H76.6508C78.2492 100.174 78.8769 98.1008 77.5469 97.2141L73.912 94.7909C73.6467 94.6139 73.3349 94.5195 73.0159 94.5195Z" stroke="white" stroke-width="1.4893" stroke-linecap="round" stroke-linejoin="round"/>
<path d="M85.0897 92.9746C83.3403 92.9746 81.8796 94.2924 81.5329 96.0477C81.4464 96.4854 81.8165 96.8506 82.2626 96.8506L87.9169 96.8506C88.363 96.8506 88.733 96.4854 88.6465 96.0477C88.2998 94.2924 86.8391 92.9746 85.0897 92.9746Z" stroke="white" stroke-width="1.48627" stroke-linecap="round"/>
<path d="M53.0503 69.7212C52.55 69.2728 51.8889 69 51.1641 69C49.6027 69 48.3369 70.2658 48.3369 71.8271C48.3369 73.3885 49.6027 74.6543 51.1641 74.6543C51.8406 74.6543 52.4617 74.4166 52.9484 74.0202" stroke="white" stroke-width="1.48627" stroke-linecap="round"/>
</g>
<defs>
<linearGradient id="paint0_linear_2065_210" x1="190.64" y1="-30.4603" x2="54.4436" y2="144.425" gradientUnits="userSpaceOnUse">
<stop stop-color="#B6C4F9"/>
<stop offset="0.633333" stop-color="#3B497E"/>
<stop offset="1" stop-color="#181F32"/>
</linearGradient>
<linearGradient id="paint1_linear_2065_210" x1="22.2326" y1="115.89" x2="67.5731" y2="20.8323" gradientUnits="userSpaceOnUse">
<stop stop-color="#BFC9EF"/>
<stop offset="0.669792" stop-color="#B0BEF3" stop-opacity="0.32"/>
<stop offset="1" stop-color="#AEBEFB" stop-opacity="0"/>
</linearGradient>
<clipPath id="clip0_2065_210">
<rect width="128.141" height="146" fill="white"/>
</clipPath>
</defs>
</svg>
